<?xml version="1.0" encoding="UTF-8" standalone="no"?>
<svg
   xmlns:dc="http://purl.org/dc/elements/1.1/"
   xmlns:cc="http://creativecommons.org/ns#"
   xmlns:rdf="http://www.w3.org/1999/02/22-rdf-syntax-ns#"
   xmlns:svg="http://www.w3.org/2000/svg"
   xmlns="http://www.w3.org/2000/svg"
   xmlns:sodipodi="http://sodipodi.sourceforge.net/DTD/sodipodi-0.dtd"
   xmlns:inkscape="http://www.inkscape.org/namespaces/inkscape"
   inkscape:version="1.0 (4035a4f, 2020-05-01)"
   sodipodi:docname="galaxy.svg"
   xml:space="preserve"
   style="enable-background:new 0 0 251.6 66.5;"
   viewBox="0 0 251.6 66.5"
   height="66.5px"
   width="251.6px"
   y="0px"
   x="0px"
   id="Layer_1"
   version="1.1"><metadata
   id="metadata4603"><rdf:RDF><cc:Work
       rdf:about=""><dc:format>image/svg+xml</dc:format><dc:type
         rdf:resource="http://purl.org/dc/dcmitype/StillImage" /></cc:Work></rdf:RDF></metadata><defs
   id="defs4601" /><sodipodi:namedview
   inkscape:current-layer="Layer_1"
   inkscape:window-maximized="0"
   inkscape:window-y="25"
   inkscape:window-x="0"
   inkscape:cy="33.25"
   inkscape:cx="125.8"
   inkscape:zoom="4.3561207"
   showgrid="false"
   id="namedview4599"
   inkscape:window-height="1016"
   inkscape:window-width="1751"
   inkscape:pageshadow="2"
   inkscape:pageopacity="0"
   guidetolerance="10"
   gridtolerance="10"
   objecttolerance="10"
   borderopacity="1"
   bordercolor="#666666"
   pagecolor="#ffffff" />
<style
   id="style4537"
   type="text/css">
	.st0{fill:#FFFFFF;}
	.st1{fill:url(#SVGID_1_);}
</style>
<rect
   y="-22.497082"
   x="-10.789416"
   height="101.23686"
   width="286.49344"
   id="rect5166"
   style="opacity:1;fill:#101e35;fill-rule:evenodd;stroke-width:10;fill-opacity:1" /><g
   id="g4585">
	<path
   id="path4539"
   d="M83.3,21.2H86v6.1c-0.8,0.6-1.7,1.1-2.8,1.4s-2.1,0.5-3.2,0.5c-1.6,0-3-0.3-4.2-1c-1.3-0.7-2.2-1.6-2.9-2.8   c-0.7-1.2-1.1-2.5-1.1-4s0.4-2.8,1.1-4s1.7-2.1,3-2.8s2.7-1,4.2-1c1.3,0,2.4,0.2,3.5,0.6c1,0.4,1.9,1,2.6,1.9l-1.8,1.7   c-1.2-1.2-2.6-1.7-4.2-1.7c-1.1,0-2,0.2-2.9,0.7s-1.5,1.1-2,1.9s-0.7,1.7-0.7,2.8c0,1,0.2,1.9,0.7,2.8c0.5,0.8,1.1,1.5,2,1.9   s1.8,0.7,2.8,0.7c1.2,0,2.2-0.3,3.1-0.8v-4.9H83.3z"
   class="st0" />
	<path
   id="path4541"
   d="M96.2,17.2v2.6c-0.2,0-0.4-0.1-0.6-0.1c-1.1,0-1.9,0.3-2.5,0.9s-0.9,1.5-0.9,2.7V29h-2.7V17.3h2.6V19   C92.9,17.8,94.3,17.2,96.2,17.2z"
   class="st0" />
	<path
   id="path4543"
   d="M106.9,18.4c0.9,0.8,1.4,2.1,1.4,3.7V29h-2.6v-1.4c-0.3,0.5-0.8,0.9-1.4,1.2s-1.4,0.4-2.2,0.4   c-0.9,0-1.6-0.1-2.3-0.4c-0.7-0.3-1.2-0.7-1.5-1.2c-0.4-0.5-0.5-1.1-0.5-1.8c0-1,0.4-1.9,1.2-2.5c0.8-0.6,2-0.9,3.7-0.9h3V22   c0-0.8-0.2-1.4-0.7-1.9c-0.5-0.4-1.2-0.7-2.2-0.7c-0.7,0-1.3,0.1-1.9,0.3c-0.6,0.2-1.2,0.5-1.6,0.9l-1.1-2c0.6-0.5,1.3-0.8,2.2-1.1   c0.9-0.2,1.8-0.4,2.7-0.4C104.7,17.2,106,17.6,106.9,18.4z M104.4,26.7c0.5-0.3,0.9-0.8,1.1-1.3V24h-2.8c-1.6,0-2.4,0.5-2.4,1.5   c0,0.5,0.2,0.9,0.6,1.2s0.9,0.4,1.6,0.4C103.3,27.2,103.9,27,104.4,26.7z"
   class="st0" />
	<path
   id="path4545"
   d="M121.2,17.9c0.9,0.5,1.6,1.2,2.1,2.1s0.8,1.9,0.8,3.1s-0.3,2.2-0.8,3.1s-1.2,1.6-2.1,2.1s-1.9,0.7-3,0.7   c-1.6,0-2.8-0.5-3.7-1.6v5.7h-2.7V17.3h2.6v1.5c0.5-0.6,1-1,1.7-1.2s1.4-0.4,2.2-0.4C119.3,17.2,120.3,17.4,121.2,17.9z    M120.4,25.8c0.6-0.7,1-1.5,1-2.6s-0.3-2-1-2.6s-1.5-1-2.5-1c-0.7,0-1.2,0.1-1.8,0.4s-0.9,0.7-1.2,1.3c-0.3,0.6-0.5,1.2-0.5,1.9   c0,0.7,0.2,1.4,0.5,1.9s0.7,1,1.2,1.3s1.1,0.4,1.8,0.4C118.9,26.8,119.7,26.5,120.4,25.8z"
   class="st0" />
	<path
   id="path4547"
   d="M136.9,18.5c0.9,0.9,1.3,2.1,1.3,3.8V29h-2.7v-6.3c0-1-0.2-1.8-0.7-2.3s-1.2-0.8-2.1-0.8c-1,0-1.8,0.3-2.4,0.9   c-0.6,0.6-0.9,1.5-0.9,2.6V29h-2.7V12.8h2.7v5.9c0.5-0.5,1-0.8,1.7-1.1c0.7-0.3,1.4-0.4,2.2-0.4C134.8,17.2,136,17.6,136.9,18.5z"
   class="st0" />
	<path
   id="path4549"
   d="M158.1,30.5c-0.5,0.6-1.1,1-1.8,1.4s-1.4,0.5-2.2,0.5c-1,0-2-0.2-2.9-0.7s-1.9-1.3-3-2.5   c-1.4-0.1-2.7-0.5-3.8-1.2s-2-1.6-2.6-2.8c-0.6-1.1-0.9-2.4-0.9-3.8c0-1.5,0.4-2.8,1.1-4c0.7-1.2,1.7-2.1,2.9-2.8   c1.3-0.7,2.7-1,4.2-1c1.6,0,3,0.3,4.2,1c1.3,0.7,2.2,1.6,2.9,2.8s1.1,2.5,1.1,4c0,1.2-0.2,2.3-0.7,3.4c-0.5,1-1.1,1.9-2,2.6   s-1.9,1.2-3,1.6c0.4,0.5,0.8,0.8,1.2,1s0.8,0.3,1.3,0.3c1,0,1.9-0.4,2.6-1.2L158.1,30.5z M144.4,24.1c0.5,0.8,1.1,1.5,1.9,1.9   s1.7,0.7,2.8,0.7c1,0,1.9-0.2,2.8-0.7c0.8-0.5,1.5-1.1,1.9-1.9c0.5-0.8,0.7-1.7,0.7-2.8s-0.2-1.9-0.7-2.8c-0.5-0.8-1.1-1.5-1.9-1.9   c-0.8-0.5-1.7-0.7-2.8-0.7c-1,0-1.9,0.2-2.8,0.7s-1.5,1.1-1.9,1.9c-0.5,0.8-0.7,1.7-0.7,2.8S143.9,23.3,144.4,24.1z"
   class="st0" />
	<path
   id="path4551"
   d="M160.3,13.7h2.8v12.9h8V29h-10.8V13.7z"
   class="st0" />
	<path
   id="path4553"
   d="M189.8,21.2h2.7v6.1c-0.8,0.6-1.7,1.1-2.8,1.4s-2.1,0.5-3.2,0.5c-1.6,0-3-0.3-4.2-1c-1.3-0.7-2.2-1.6-2.9-2.8   c-0.7-1.2-1.1-2.5-1.1-4s0.4-2.8,1.1-4s1.7-2.1,3-2.8s2.7-1,4.2-1c1.3,0,2.4,0.2,3.5,0.6c1,0.4,1.9,1,2.6,1.9l-1.8,1.7   c-1.2-1.2-2.6-1.7-4.2-1.7c-1.1,0-2,0.2-2.9,0.7s-1.5,1.1-2,1.9s-0.7,1.7-0.7,2.8c0,1,0.2,1.9,0.7,2.8s1.1,1.5,2,1.9   s1.8,0.7,2.8,0.7c1.2,0,2.2-0.3,3.1-0.8L189.8,21.2L189.8,21.2z"
   class="st0" />
	<path
   id="path4555"
   d="M204.4,18.4c0.9,0.8,1.4,2.1,1.4,3.7V29h-2.6v-1.4c-0.3,0.5-0.8,0.9-1.4,1.2s-1.4,0.4-2.2,0.4   s-1.6-0.1-2.3-0.4s-1.2-0.7-1.5-1.2c-0.4-0.5-0.5-1.1-0.5-1.8c0-1,0.4-1.9,1.2-2.5s2-0.9,3.7-0.9h3V22c0-0.8-0.2-1.4-0.7-1.9   c-0.5-0.4-1.2-0.7-2.2-0.7c-0.7,0-1.3,0.1-1.9,0.3c-0.6,0.2-1.2,0.5-1.6,0.9l-1.1-2c0.6-0.5,1.3-0.8,2.2-1.1   c0.9-0.2,1.8-0.4,2.7-0.4C202.2,17.2,203.5,17.6,204.4,18.4z M201.9,26.7c0.5-0.3,0.9-0.8,1.1-1.3V24h-2.8c-1.6,0-2.4,0.5-2.4,1.5   c0,0.5,0.2,0.9,0.6,1.2c0.4,0.3,0.9,0.4,1.6,0.4C200.8,27.2,201.4,27,201.9,26.7z"
   class="st0" />
	<path
   id="path4557"
   d="M209.2,12.8h2.7V29h-2.7V12.8z"
   class="st0" />
	<path
   id="path4559"
   d="M224,18.4c0.9,0.8,1.4,2.1,1.4,3.7V29h-2.6v-1.4c-0.3,0.5-0.8,0.9-1.4,1.2s-1.4,0.4-2.2,0.4s-1.6-0.1-2.3-0.4   s-1.2-0.7-1.5-1.2c-0.4-0.5-0.5-1.1-0.5-1.8c0-1,0.4-1.9,1.2-2.5s2-0.9,3.7-0.9h3V22c0-0.8-0.2-1.4-0.7-1.9   c-0.5-0.4-1.2-0.7-2.2-0.7c-0.7,0-1.3,0.1-1.9,0.3c-0.6,0.2-1.2,0.5-1.6,0.9l-1.1-2c0.6-0.5,1.3-0.8,2.2-1.1   c0.9-0.2,1.8-0.4,2.7-0.4C221.7,17.2,223,17.6,224,18.4z M221.5,26.7c0.5-0.3,0.9-0.8,1.1-1.3V24h-2.8c-1.6,0-2.4,0.5-2.4,1.5   c0,0.5,0.2,0.9,0.6,1.2c0.4,0.3,0.9,0.4,1.6,0.4C220.3,27.2,220.9,27,221.5,26.7z"
   class="st0" />
	<path
   id="path4561"
   d="M236.2,29l-3-4l-3,4h-3l4.5-5.9l-4.3-5.7h3l2.9,3.8l2.9-3.8h2.9l-4.4,5.7l4.6,6h-3.1V29z"
   class="st0" />
	<path
   id="path4563"
   d="M251.6,17.3l-5.5,12.6c-0.5,1.3-1.1,2.2-1.9,2.7s-1.6,0.8-2.6,0.8c-0.6,0-1.2-0.1-1.7-0.3   c-0.6-0.2-1-0.5-1.4-0.8l1.1-2c0.3,0.2,0.6,0.4,0.9,0.6c0.4,0.1,0.7,0.2,1.1,0.2c0.5,0,0.9-0.1,1.2-0.4c0.3-0.2,0.6-0.7,0.9-1.2   l0.2-0.5l-5.1-11.7h2.8l3.7,8.6l3.7-8.6H251.6z"
   class="st0" />
	<path
   id="path4565"
   d="M75.8,52.4c-1.2-0.7-2.2-1.6-2.9-2.8s-1.1-2.5-1.1-4s0.4-2.8,1.1-4s1.7-2.1,2.9-2.8c1.2-0.7,2.6-1,4.2-1   c1.3,0,2.4,0.2,3.4,0.7c1,0.4,1.9,1.1,2.6,1.9L84.2,42c-1.1-1.2-2.5-1.8-4.1-1.8c-1,0-2,0.2-2.8,0.7s-1.5,1.1-1.9,1.9   c-0.5,0.8-0.7,1.7-0.7,2.8c0,1,0.2,2,0.7,2.8s1.1,1.5,1.9,1.9c0.8,0.5,1.8,0.7,2.8,0.7c1.6,0,3-0.6,4.1-1.8l1.8,1.7   c-0.7,0.8-1.6,1.5-2.6,1.9s-2.2,0.7-3.4,0.7C78.4,53.4,77,53.1,75.8,52.4z"
   class="st0" />
	<path
   id="path4567"
   d="M90.1,52.6c-0.9-0.5-1.7-1.2-2.2-2.1c-0.5-0.9-0.8-1.9-0.8-3.1s0.3-2.2,0.8-3.1c0.5-0.9,1.3-1.6,2.2-2.1   c0.9-0.5,2-0.8,3.2-0.8s2.3,0.3,3.2,0.8c0.9,0.5,1.7,1.2,2.2,2.1s0.8,1.9,0.8,3.1s-0.3,2.2-0.8,3.1c-0.5,0.9-1.3,1.6-2.2,2.1   c-0.9,0.5-2,0.8-3.2,0.8C92.1,53.3,91.1,53.1,90.1,52.6z M95.8,50c0.7-0.7,1-1.5,1-2.6s-0.3-2-1-2.6c-0.7-0.7-1.5-1-2.5-1   s-1.8,0.3-2.5,1c-0.6,0.7-1,1.5-1,2.6s0.3,2,1,2.6c0.6,0.7,1.5,1,2.5,1S95.1,50.7,95.8,50z"
   class="st0" />
	<path
   id="path4569"
   d="M112.3,42.7c0.9,0.9,1.3,2.1,1.3,3.8v6.7h-2.7v-6.3c0-1-0.2-1.8-0.7-2.3s-1.2-0.8-2.1-0.8   c-1,0-1.8,0.3-2.4,0.9c-0.6,0.6-0.9,1.5-0.9,2.6v5.9h-2.7V41.5h2.6V43c0.5-0.5,1-0.9,1.7-1.2s1.5-0.4,2.3-0.4   C110.2,41.4,111.4,41.8,112.3,42.7z"
   class="st0" />
	<path
   id="path4571"
   d="M120.1,40.9v0.7h3.2v2.2h-3.1v9.4h-2.7v-9.4h-1.9v-2.2h1.9v-0.7c0-1.3,0.4-2.2,1.1-3c0.7-0.7,1.8-1.1,3.1-1.1   c1,0,1.9,0.2,2.5,0.6l-0.8,2.1c-0.5-0.3-1-0.5-1.5-0.5C120.7,39,120.1,39.7,120.1,40.9z"
   class="st0" />
	<path
   id="path4573"
   d="M135.9,48.2h-9.1c0.2,0.9,0.6,1.5,1.3,2s1.5,0.8,2.5,0.8c1.3,0,2.3-0.4,3.2-1.3l1.5,1.7   c-0.5,0.6-1.2,1.1-2,1.4c-0.8,0.3-1.7,0.5-2.7,0.5c-1.3,0-2.4-0.3-3.4-0.8c-1-0.5-1.7-1.2-2.3-2.1c-0.5-0.9-0.8-1.9-0.8-3.1   c0-1.1,0.3-2.2,0.8-3.1c0.5-0.9,1.2-1.6,2.2-2.1c0.9-0.5,2-0.8,3.1-0.8s2.2,0.3,3,0.8c0.9,0.5,1.6,1.2,2.1,2.1   c0.5,0.9,0.8,2,0.8,3.2C135.9,47.6,135.9,47.9,135.9,48.2z M127.8,44.3c-0.6,0.5-1,1.2-1.1,2.1h6.6c-0.1-0.8-0.5-1.5-1.1-2.1   c-0.6-0.5-1.3-0.8-2.2-0.8C129.2,43.6,128.4,43.8,127.8,44.3z"
   class="st0" />
	<path
   id="path4575"
   d="M145.3,41.4V44c-0.2,0-0.4-0.1-0.6-0.1c-1.1,0-1.9,0.3-2.5,0.9c-0.6,0.6-0.9,1.5-0.9,2.7v5.7h-2.7V41.5h2.6   v1.7C141.9,42,143.3,41.4,145.3,41.4z"
   class="st0" />
	<path
   id="path4577"
   d="M158.4,48.2h-9.1c0.2,0.9,0.6,1.5,1.3,2s1.5,0.8,2.5,0.8c1.3,0,2.3-0.4,3.2-1.3l1.5,1.7   c-0.5,0.6-1.2,1.1-2,1.4c-0.8,0.3-1.7,0.5-2.7,0.5c-1.3,0-2.4-0.3-3.4-0.8s-1.7-1.2-2.3-2.1c-0.5-0.9-0.8-1.9-0.8-3.1   c0-1.1,0.3-2.2,0.8-3.1c0.5-0.9,1.2-1.6,2.2-2.1c0.9-0.5,1.9-0.8,3.1-0.8c1.1,0,2.2,0.3,3,0.8c0.9,0.5,1.6,1.2,2.1,2.1   c0.5,0.9,0.8,2,0.8,3.2C158.5,47.6,158.5,47.9,158.4,48.2z M150.4,44.3c-0.6,0.5-1,1.2-1.1,2.1h6.6c-0.1-0.8-0.5-1.5-1.1-2.1   c-0.6-0.5-1.3-0.8-2.2-0.8C151.7,43.6,151,43.8,150.4,44.3z"
   class="st0" />
	<path
   id="path4579"
   d="M171.2,42.7c0.9,0.9,1.3,2.1,1.3,3.8v6.7h-2.7v-6.3c0-1-0.2-1.8-0.7-2.3s-1.2-0.8-2.1-0.8   c-1,0-1.8,0.3-2.4,0.9c-0.6,0.6-0.9,1.5-0.9,2.6v5.9H161V41.5h2.6V43c0.5-0.5,1-0.9,1.7-1.2s1.5-0.4,2.3-0.4   C169.2,41.4,170.4,41.8,171.2,42.7z"
   class="st0" />
	<path
   id="path4581"
   d="M178.3,52.6c-1-0.5-1.7-1.2-2.2-2.1c-0.5-0.9-0.8-1.9-0.8-3.1s0.3-2.2,0.8-3.1c0.5-0.9,1.3-1.6,2.2-2.1   c1-0.5,2-0.8,3.3-0.8c1.1,0,2.2,0.2,3,0.7c0.9,0.5,1.5,1.1,2,2l-2.1,1.2c-0.3-0.5-0.8-0.9-1.3-1.2s-1.1-0.4-1.6-0.4   c-1,0-1.9,0.3-2.5,1s-1,1.5-1,2.7c0,1.1,0.3,2,1,2.7s1.5,1,2.5,1c0.6,0,1.1-0.1,1.6-0.4c0.5-0.3,0.9-0.7,1.3-1.2l2.1,1.2   c-0.5,0.9-1.1,1.5-2,2s-1.9,0.7-3,0.7C180.3,53.3,179.2,53.1,178.3,52.6z"
   class="st0" />
	<path
   id="path4583"
   d="M199.6,48.2h-9.1c0.2,0.9,0.6,1.5,1.3,2s1.5,0.8,2.5,0.8c1.3,0,2.3-0.4,3.2-1.3l1.5,1.7   c-0.5,0.6-1.2,1.1-2,1.4c-0.8,0.3-1.7,0.5-2.7,0.5c-1.3,0-2.4-0.3-3.4-0.8s-1.7-1.2-2.3-2.1c-0.5-0.9-0.8-1.9-0.8-3.1   c0-1.1,0.3-2.2,0.8-3.1c0.5-0.9,1.2-1.6,2.2-2.1c0.9-0.5,2-0.8,3.1-0.8s2.2,0.3,3,0.8c0.9,0.5,1.6,1.2,2.1,2.1s0.8,2,0.8,3.2   C199.6,47.6,199.6,47.9,199.6,48.2z M191.5,44.3c-0.6,0.5-1,1.2-1.1,2.1h6.6c-0.1-0.8-0.5-1.5-1.1-2.1c-0.6-0.5-1.3-0.8-2.2-0.8   C192.9,43.6,192.1,43.8,191.5,44.3z"
   class="st0" />
</g>
<linearGradient
   gradientTransform="matrix(1 0 0 -1 0 68)"
   y2="-17.8725"
   x2="29.7"
   y1="76.6223"
   x1="29.7"
   gradientUnits="userSpaceOnUse"
   id="SVGID_1_">
	<stop
   id="stop4587"
   style="stop-color:#FF00D7"
   offset="0" />
	<stop
   id="stop4589"
   style="stop-color:#DD11DC"
   offset="0.1269" />
	<stop
   id="stop4591"
   style="stop-color:#4062F5"
   offset="0.7357" />
	<stop
   id="stop4593"
   style="stop-color:#0083FF"
   offset="1" />
</linearGradient>
<path
   id="path4596"
   d="M52.6,39.6c-0.6,0-1.2,0.1-1.8,0.2c0,0,0,0-0.1,0s-0.3,0.1-0.4,0.1h-0.1L34,12l11.9,6.9  c-0.1,0.4-0.1,0.8-0.1,1.1c0,3.8,3.1,6.8,6.8,6.8s6.8-3.1,6.8-6.8c0-3.8-3.1-6.8-6.8-6.8c-1.7,0-3.2,0.6-4.4,1.6L36.4,7.9  c0.1-0.3,0.1-0.7,0.1-1.1c0-3.8-3-6.8-6.8-6.8s-6.8,3.1-6.8,6.8c0,0.4,0,0.8,0.1,1.1l-11.9,6.8c-1.2-0.9-2.7-1.5-4.3-1.5  C3,13.2,0,16.2,0,20c0,2.9,1.8,5.3,4.4,6.3V40C1.8,41,0,43.5,0,46.4c0,3.8,3.1,6.8,6.8,6.8c1.6,0,3.1-0.5,4.3-1.5L23,58.6  c-0.1,0.3-0.1,0.7-0.1,1.1c0,3.8,3,6.8,6.8,6.8s6.8-3.1,6.8-6.8c0-0.4,0-0.8-0.1-1.1l11.9-6.9c1.2,1,2.7,1.5,4.3,1.5  c3.8,0,6.8-3.1,6.8-6.8C59.4,42.6,56.4,39.6,52.6,39.6z M9.2,26.3c2.6-0.9,4.4-3.4,4.4-6.3c0-0.4,0-0.7-0.1-1.1l11.8-6.8L9.2,39.9  V26.3z M10.9,41l16.3-28.2c1.6,0.7,3.5,0.7,5.1,0.1l16.2,28L48.4,41l-12-6.9c0.1-0.4,0.1-0.7,0.1-1.1c0-3.8-3-6.8-6.8-6.8  s-6.8,3-6.8,6.8s3.1,6.8,6.8,6.8c1.6,0,3.1-0.5,4.3-1.5l11.7,6.8v0.1H13.5C13.1,43.5,12.2,42,10.9,41z M34,54.4c-2.5-2-6.1-2-8.6,0  l-11.9-6.9c0-0.1,0-0.2,0-0.3h32.3c0,0.1,0,0.2,0,0.3L34,54.4z"
   class="st1" />
</svg>
