<?xml version="1.0" encoding="UTF-8" standalone="no"?>
<svg
   xmlns:dc="http://purl.org/dc/elements/1.1/"
   xmlns:cc="http://creativecommons.org/ns#"
   xmlns:rdf="http://www.w3.org/1999/02/22-rdf-syntax-ns#"
   xmlns:svg="http://www.w3.org/2000/svg"
   xmlns="http://www.w3.org/2000/svg"
   xmlns:sodipodi="http://sodipodi.sourceforge.net/DTD/sodipodi-0.dtd"
   xmlns:inkscape="http://www.inkscape.org/namespaces/inkscape"
   inkscape:version="1.0 (4035a4f, 2020-05-01)"
   sodipodi:docname="graphqlfinland.svg"
   id="svg902"
   style="fill-rule:evenodd;clip-rule:evenodd;stroke-linejoin:round;stroke-miterlimit:1.41421;"
   xml:space="preserve"
   version="1.1"
   viewBox="0 0 200 200"
   height="100%"
   width="100%"><metadata
   id="metadata908"><rdf:RDF><cc:Work
       rdf:about=""><dc:format>image/svg+xml</dc:format><dc:type
         rdf:resource="http://purl.org/dc/dcmitype/StillImage" /><dc:title></dc:title></cc:Work></rdf:RDF></metadata><defs
   id="defs906">
        
    
            
        </defs><sodipodi:namedview
   inkscape:current-layer="g896"
   inkscape:window-maximized="0"
   inkscape:window-y="25"
   inkscape:window-x="0"
   inkscape:cy="100"
   inkscape:cx="100"
   inkscape:zoom="3.56"
   showgrid="false"
   id="namedview904"
   inkscape:window-height="1007"
   inkscape:window-width="1446"
   inkscape:pageshadow="2"
   inkscape:pageopacity="0"
   guidetolerance="10"
   gridtolerance="10"
   objecttolerance="10"
   borderopacity="1"
   bordercolor="#666666"
   pagecolor="#ffffff" />
    <rect
   y="86.227997"
   x="81.062202"
   height="26.132601"
   width="39"
   id="rect944"
   style="fill:#002f6c;fill-opacity:1;fill-rule:evenodd;stroke:none;stroke-width:9.88823" /><g
   transform="translate(292.2238,323.22)"
   style="fill:#e10098;fill-opacity:1"
   id="g896">
                <g
   style="fill:#ffffff;fill-opacity:1"
   transform="matrix(1.3793103,0,0,1.4345366,-218.43688,-237.84677)"
   id="b">
                    <path
   id="path833"
   style="fill:#ffffff;fill-opacity:1"
   d="m 4.912079,0.20422837 h 6.826 V 6.7562284 h -6.826 z m 0,13.07300063 v 5.927 h 6.826 v -5.927 z m 12.595,0 v 5.927 h 16.405 v -5.927 z m 16.405,-6.5210006 V 0.20422837 h -16.405 V 6.7562284 Z" />
                </g>
                <g
   style="fill:#e10098;fill-opacity:1"
   id="g838"
   transform="matrix(-0.371555,-0.214524,0.214524,-0.371555,-207.399,-153.151)">
                    <rect
   id="rect836"
   style="fill:#e10098;fill-opacity:1"
   height="320.29999"
   width="16.6"
   y="-0.40000001"
   x="122" />
                </g>
                <g
   style="fill:#e10098;fill-opacity:1"
   id="g842"
   transform="matrix(0.429047,0,0,0.429047,-277.471,-309.03)">
                    <rect
   id="rect840"
   style="fill:#e10098;fill-opacity:1"
   height="16.6"
   width="320.29999"
   y="272.20001"
   x="39.799999" />
                </g>
                <g
   style="fill:#e10098;fill-opacity:1"
   id="g846"
   transform="matrix(-0.371555,-0.214524,0.214524,-0.371555,-241.831,-24.4253)">
                    <rect
   id="rect844"
   style="fill:#e10098;fill-opacity:1"
   height="16.6"
   width="185"
   y="312.20001"
   x="37.900002" />
                </g>
                <g
   style="fill:#e10098;fill-opacity:1"
   id="g850"
   transform="matrix(-0.371555,-0.214524,0.214524,-0.371555,-78.6761,-187.58)">
                    <rect
   id="rect848"
   style="fill:#e10098;fill-opacity:1"
   height="16.6"
   width="185"
   y="71.099998"
   x="177.10001" />
                </g>
                <g
   style="fill:#e10098;fill-opacity:1"
   id="g854"
   transform="matrix(-0.214524,-0.371555,0.371555,-0.214524,-223.072,-209.439)">
                    <rect
   id="rect852"
   style="fill:#e10098;fill-opacity:1"
   height="185"
   width="16.6"
   y="-13"
   x="122.1" />
                </g>
                <g
   style="fill:#e10098;fill-opacity:1"
   id="g858"
   transform="matrix(-0.214524,-0.371555,0.371555,-0.214524,-163.309,-105.929)">
                    <rect
   id="rect856"
   style="fill:#e10098;fill-opacity:1"
   height="16.6"
   width="320.29999"
   y="151.60001"
   x="109.6" />
                </g>
                <g
   style="fill:#e10098;fill-opacity:1"
   id="g862"
   transform="matrix(0.429047,0,0,0.429047,-277.471,-309.03)">
                    <rect
   id="rect860"
   style="fill:#e10098;fill-opacity:1"
   height="185"
   width="16.6"
   y="107.5"
   x="52.5" />
                </g>
                <g
   style="fill:#e10098;fill-opacity:1"
   id="g866"
   transform="matrix(0.429047,0,0,0.429047,-277.471,-309.03)">
                    <rect
   id="rect864"
   style="fill:#e10098;fill-opacity:1"
   height="185"
   width="16.6"
   y="107.5"
   x="330.89999" />
                </g>
                <g
   style="fill:#e10098;fill-opacity:1"
   id="g870"
   transform="matrix(-0.214524,-0.371555,0.371555,-0.214524,-223.07,-2.56685)">
                    <rect
   id="rect868"
   style="fill:#e10098;fill-opacity:1"
   height="160.89999"
   width="14.5"
   y="240.10001"
   x="262.39999" />
                </g>
                <g
   style="fill:#e10098;fill-opacity:1"
   id="g874"
   transform="matrix(0.429047,0,0,0.429047,-277.471,-309.03)">
                    <path
   id="path872"
   style="fill:#e10098;fill-opacity:1;fill-rule:nonzero"
   d="m 369.5,297.9 c -9.6,16.7 -31,22.4 -47.7,12.8 -16.7,-9.6 -22.4,-31 -12.8,-47.7 9.6,-16.7 31,-22.4 47.7,-12.8 16.8,9.7 22.5,31 12.8,47.7" />
                </g>
                <g
   style="fill:#e10098;fill-opacity:1"
   id="g878"
   transform="matrix(0.429047,0,0,0.429047,-277.471,-309.03)">
                    <path
   id="path876"
   style="fill:#e10098;fill-opacity:1;fill-rule:nonzero"
   d="m 90.9,137 c -9.6,16.7 -31,22.4 -47.7,12.8 -16.7,-9.6 -22.4,-31 -12.8,-47.7 9.6,-16.7 31,-22.4 47.7,-12.8 16.7,9.7 22.4,31 12.8,47.7" />
                </g>
                <g
   style="fill:#e10098;fill-opacity:1"
   id="g882"
   transform="matrix(0.429047,0,0,0.429047,-277.471,-309.03)">
                    <path
   id="path880"
   style="fill:#e10098;fill-opacity:1;fill-rule:nonzero"
   d="m 30.5,297.9 c -9.6,-16.7 -3.9,-38 12.8,-47.7 16.7,-9.6 38,-3.9 47.7,12.8 9.6,16.7 3.9,38 -12.8,47.7 -16.8,9.6 -38.1,3.9 -47.7,-12.8" />
                </g>
                <g
   style="fill:#e10098;fill-opacity:1"
   id="g886"
   transform="matrix(0.429047,0,0,0.429047,-277.471,-309.03)">
                    <path
   id="path884"
   style="fill:#e10098;fill-opacity:1;fill-rule:nonzero"
   d="m 309.1,137 c -9.6,-16.7 -3.9,-38 12.8,-47.7 16.7,-9.6 38,-3.9 47.7,12.8 9.6,16.7 3.9,38 -12.8,47.7 -16.7,9.6 -38.1,3.9 -47.7,-12.8" />
                </g>
                <g
   style="fill:#e10098;fill-opacity:1"
   id="g890"
   transform="matrix(0.429047,0,0,0.429047,-277.471,-309.03)">
                    <path
   id="path888"
   style="fill:#e10098;fill-opacity:1;fill-rule:nonzero"
   d="m 200,395.8 c -19.3,0 -34.9,-15.6 -34.9,-34.9 0,-19.3 15.6,-34.9 34.9,-34.9 19.3,0 34.9,15.6 34.9,34.9 0,19.2 -15.6,34.9 -34.9,34.9" />
                </g>
                <g
   style="fill:#e10098;fill-opacity:1"
   id="g894"
   transform="matrix(0.429047,0,0,0.429047,-277.471,-309.03)">
                    <path
   id="path892"
   style="fill:#e10098;fill-opacity:1;fill-rule:nonzero"
   d="m 200,74 c -19.3,0 -34.9,-15.6 -34.9,-34.9 0,-19.3 15.6,-34.9 34.9,-34.9 19.3,0 34.9,15.6 34.9,34.9 0,19.3 -15.6,34.9 -34.9,34.9" />
                </g>
            </g>
</svg>
